# xmcd CD database file
#
# Track frame offsets:
#	150
#	27168
#	53437
#	62037
#	90102
#	108358
#	124756
#	152762
#	179480
#
# Disc length: 2809 seconds
#
# Revision: 0
# Processed by: cddbd v1.5.1PL0 Copyright (c) Steve Scherf et al.
# Submitted via: CDex 1.51
#
DISCID=650af709
DTITLE=Jimmy Wilson - Future History
DYEAR=2001
DGENRE=Jazz
TTITLE0=Super Hero
TTITLE1=Apparitions
TTITLE2=Future History
TTITLE3=Restless Intonations
TTITLE4=The Ear Of The Beholder
TTITLE5=Fortune Teller
TTITLE6=Loves Mission
TTITLE7=Cirque
TTITLE8=In Dreams
EXTD=YEAR: 2001
EXTT0=
EXTT1=
EXTT2=
EXTT3=
EXTT4=
EXTT5=
EXTT6=
EXTT7=
EXTT8=
PLAYORDER=
